<?xml version="1.0" encoding="utf-8"?>
<!-- Generator: Adobe Illustrator 21.1.0, SVG Export Plug-In . SVG Version: 6.00 Build 0)  -->
<svg version="1.1" id="Layer_1" xmlns="http://www.w3.org/2000/svg" xmlns:xlink="http://www.w3.org/1999/xlink" x="0px" y="0px"
	 viewBox="0 0 323 271" style="enable-background:new 0 0 323 271;" xml:space="preserve">
<style type="text/css">
	.st0{fill:none;}
	.st1{enable-background:new    ;}
</style>
<g>
	<g>
		<rect x="-16.7" y="-214.8" class="st0" width="363.7" height="660.8"/>
		<g class="st1">
			<path d="M314.1,271.8H196.2c-4.1,0-6.5-2.3-6.5-7c0-4.1,2.3-6.5,6.5-6.5h12.9c9.4,0,16.4-7.6,16.4-16.4V94
				c0-46.3-21.1-66.9-48.7-66.9c-47.5,0-79.8,52.2-79.8,114.4v100.3c0,8.8,7,16.4,16.4,16.4h12.9c4.1,0,7,2.3,7,6.5s-2.9,7-7,7H8.5
				c-4.1,0-6.5-2.3-6.5-7c0-4.1,2.3-6.5,6.5-6.5h12.9c9.4,0,16.4-7.6,16.4-16.4V37.1c0-8.8-7-16.4-16.4-16.4H8.5
				c-4.1,0-6.5-2.3-6.5-6.5c0-4.7,2.3-7,6.5-7h88.6v72.2c17-46.3,55.7-76.3,103.2-76.3c51.6,0,84.5,30.5,84.5,83.9v154.9
				c0,8.8,7,16.4,16.4,16.4h12.9c4.1,0,7,2.3,7,6.5S318.2,271.8,314.1,271.8z"/>
		</g>
		<path d="M200.9,172.3L200.9,172.3c-5.2,0-9.4-4.2-9.4-9.4l0,0c0-5.2,4.2-9.4,9.4-9.4l0,0c5.2,0,9.4,4.2,9.4,9.4l0,0
			C210.3,168,206.1,172.3,200.9,172.3z"/>
	</g>
	<path d="M245,238.8l-97.5,31.9c-0.6,0.2-0.5,1.1,0.2,1.1c73.8-0.4,146.3-0.1,131.3,0"/>
</g>
</svg>
