<?xml version="1.0" encoding="utf-8"?>
<!-- Generator: Adobe Illustrator 21.1.0, SVG Export Plug-In . SVG Version: 6.00 Build 0)  -->
<svg version="1.1" id="Layer_1" xmlns="http://www.w3.org/2000/svg" xmlns:xlink="http://www.w3.org/1999/xlink" x="0px" y="0px"
	 viewBox="0 0 849.9 251" style="enable-background:new 0 0 849.9 251;" xml:space="preserve">
<style type="text/css">
	.st0{font-family:'Isabel-Black';}
	.st1{font-size:164.1756px;}
	.st2{fill:none;}
	.st3{font-family:'Isabel-Regular';}
	.st4{font-size:213.4248px;}
</style>
<text transform="matrix(1 0 0 1 -4.1035 246.0645)" class="st0 st1">Niwaas Co.</text>
<g>
	<g>
		<rect x="360.3" y="-76.8" class="st2" width="132.3" height="240.4"/>
		<text transform="matrix(1 0 0 1 360.2808 100.2168)" class="st3 st4">n</text>
		<path d="M439.5,64L439.5,64c-1.9,0-3.4-1.5-3.4-3.4v0c0-1.9,1.5-3.4,3.4-3.4l0,0c1.9,0,3.4,1.5,3.4,3.4v0
			C442.9,62.5,441.3,64,439.5,64z"/>
	</g>
	<path d="M455.5,88L420,99.6c-0.2,0.1-0.2,0.4,0.1,0.4h47.8"/>
</g>
</svg>
